<svg width="128" height="128" viewBox="0 0 128 128" fill="none" xmlns="http://www.w3.org/2000/svg">
<g clip-path="url(#clip0_9_295)">
<path d="M96 96C113.673 78.3269 113.673 49.6731 96 32C78.3269 14.3269 49.6731 14.3269 32 32C14.3269 49.6731 14.3269 78.3269 32 96C49.6731 113.673 78.3269 113.673 96 96Z" fill="#B24B27"/>
<path d="M85.3333 85.3333C97.1154 73.5512 97.1154 54.4487 85.3333 42.6666C73.5512 30.8846 54.4487 30.8846 42.6666 42.6666C30.8846 54.4487 30.8846 73.5512 42.6666 85.3333C54.4487 97.1154 73.5512 97.1154 85.3333 85.3333Z" fill="#864146"/>
<path d="M81.7778 81.7778C91.5962 71.9594 91.5962 56.0406 81.7778 46.2222C71.9594 36.4038 56.0406 36.4038 46.2222 46.2222C36.4038 56.0406 36.4038 71.9594 46.2222 81.7778C56.0406 91.5962 71.9594 91.5962 81.7778 81.7778Z" fill="#D2805F"/>
<path d="M78.2222 78.2222C86.0769 70.3675 86.0769 57.6325 78.2222 49.7778C70.3675 41.9231 57.6325 41.9231 49.7778 49.7778C41.923 57.6325 41.923 70.3675 49.7778 78.2222C57.6325 86.0769 70.3675 86.0769 78.2222 78.2222Z" fill="#C2AC8F"/>
<path d="M74.6666 74.6667C80.5576 68.7757 80.5576 59.2244 74.6666 53.3334C68.7755 47.4423 59.2243 47.4423 53.3332 53.3334C47.4422 59.2244 47.4422 68.7757 53.3332 74.6667C59.2243 80.5577 68.7755 80.5577 74.6666 74.6667Z" fill="#929292"/>
<path d="M71.1111 71.1111C75.0385 67.1838 75.0385 60.8162 71.1111 56.8889C67.1837 52.9615 60.8162 52.9615 56.8889 56.8889C52.9615 60.8162 52.9615 67.1838 56.8889 71.1111C60.8162 75.0385 67.1837 75.0385 71.1111 71.1111Z" fill="#3D393B"/>
<path d="M85.3333 42.6668L53.3333 10.6668L49.7778 14.2223L81.7778 46.2224L85.3333 42.6668Z" fill="#864146"/>
<path d="M81.7778 46.2224L49.7778 14.2223L46.2222 17.7779L78.2223 49.7779L81.7778 46.2224Z" fill="#D2805F"/>
<path d="M78.2223 49.7779L46.2222 17.7779L42.6667 21.3334L74.6667 53.3335L78.2223 49.7779Z" fill="#C2AC8F"/>
<path d="M74.6667 53.3334L42.6666 21.3334L39.1111 24.889L71.1111 56.889L74.6667 53.3334Z" fill="#929292"/>
<path d="M71.1111 56.889L39.1111 24.8889L35.5555 28.4445L67.5556 60.4445L71.1111 56.889Z" fill="#3D393B"/>
<path d="M96.0001 32.0001L64.0001 0.00012207L53.3334 10.6668L85.3334 42.6668L96.0001 32.0001Z" fill="#B24B27"/>
<path d="M81.7778 81.7778L49.7778 113.778L53.3333 117.333L85.3333 85.3333L81.7778 81.7778Z" fill="#864146"/>
<path d="M78.2222 78.2222L46.2222 110.222L49.7778 113.778L81.7778 81.7778L78.2222 78.2222Z" fill="#D2805F"/>
<path d="M74.6667 74.6667L42.6667 106.667L46.2222 110.222L78.2223 78.2223L74.6667 74.6667Z" fill="#C2AC8F"/>
<path d="M71.1111 71.1111L39.1111 103.111L42.6666 106.667L74.6667 74.6667L71.1111 71.1111Z" fill="#929292"/>
<path d="M67.5556 67.5556L35.5555 99.5556L39.1111 103.111L71.1111 71.1111L67.5556 67.5556Z" fill="#3D393B"/>
<path d="M85.3333 85.3334L53.3333 117.333L64 128L96 96L85.3333 85.3334Z" fill="#B24B27"/>
</g>
<defs>
<clipPath id="clip0_9_295">
<rect width="128" height="128" fill="white"/>
</clipPath>
</defs>
</svg>
