<svg width="211" height="45" viewBox="0 0 211 45" fill="none" xmlns="http://www.w3.org/2000/svg">
<g clip-path="url(#clip0_1_1321)">
<mask id="mask0_1_1321" style="mask-type:alpha" maskUnits="userSpaceOnUse" x="0" y="0" width="211" height="45">
<path fill-rule="evenodd" clip-rule="evenodd" d="M210.964 45.0001L0.317064 45L0.317068 4.64345e-05L26.1103 4.48748e-05C26.1102 10.6514 34.7715 19.286 45.4557 19.286L74.4737 19.286L90.7346 19.286L165.825 19.2861C176.509 19.2861 185.17 10.6514 185.17 5.87802e-05L210.964 6.48499e-05L210.964 45.0001Z" fill="white"/>
</mask>
<g mask="url(#mask0_1_1321)">
<path d="M45.4556 -44.9999C20.5263 -44.9999 0.317035 -24.8528 0.317033 5.24723e-05C0.317031 24.8529 20.5262 45.0001 45.4556 45.0001C70.3849 45.0001 90.5941 24.8529 90.5941 6.03646e-05C90.5941 -24.8528 70.3849 -44.9999 45.4556 -44.9999Z" fill="#3D393B"/>
<path d="M45.4556 -41.7859C22.3068 -41.7859 3.54094 -23.0777 3.54094 6.52909e-05C3.54093 23.0778 22.3068 41.7861 45.4556 41.7861C68.6044 41.7861 87.3702 23.0778 87.3702 7.26195e-05C87.3702 -23.0777 68.6044 -41.7859 45.4556 -41.7859Z" fill="#929292"/>
<path d="M45.4555 -38.571C24.0878 -38.571 6.76576 -21.3021 6.76576 3.84369e-05C6.76576 21.3022 24.0878 38.571 45.4555 38.571C66.8233 38.571 84.1453 21.3022 84.1453 4.52016e-05C84.1453 -21.3021 66.8233 -38.571 45.4555 -38.571Z" fill="#C2AC8F"/>
<path d="M45.4557 -35.3569C25.8684 -35.357 9.9898 -19.5271 9.98979 4.82037e-05C9.98979 19.5272 25.8684 35.3571 45.4557 35.3571C65.0429 35.3571 80.9215 19.5272 80.9215 5.44048e-05C80.9215 -19.5271 65.0429 -35.3569 45.4557 -35.3569Z" fill="#D2805F"/>
<path d="M45.4556 -32.1429C27.6488 -32.1429 13.2136 -17.752 13.2136 6.34172e-05C13.2136 17.7522 27.6488 32.1431 45.4556 32.1431C63.2623 32.1431 77.6975 17.7522 77.6975 6.90545e-05C77.6975 -17.752 63.2623 -32.1429 45.4556 -32.1429Z" fill="#864146"/>
<path d="M45.4556 -28.9289C29.4293 -28.9289 16.4375 -15.977 16.4375 7.59963e-05C16.4375 15.9771 29.4293 28.9291 45.4556 28.9291C61.4818 28.9291 74.4736 15.9771 74.4736 8.107e-05C74.4736 -15.977 61.4818 -28.9289 45.4556 -28.9289Z" fill="#B24B27"/>
<path d="M165.825 -44.9999C140.896 -44.9999 120.687 -24.8528 120.687 5.24723e-05C120.687 24.8529 140.896 45.0001 165.825 45.0001C190.754 45.0001 210.964 24.8529 210.964 6.03646e-05C210.964 -24.8528 190.754 -44.9999 165.825 -44.9999Z" fill="#3D393B"/>
<path d="M165.825 -41.7859C142.676 -41.7859 123.91 -23.0777 123.91 6.52909e-05C123.91 23.0778 142.676 41.7861 165.825 41.7861C188.974 41.7861 207.74 23.0778 207.74 7.26195e-05C207.74 -23.0777 188.974 -41.7859 165.825 -41.7859Z" fill="#929292"/>
<path d="M165.825 -38.571C144.457 -38.571 127.135 -21.3021 127.135 3.84369e-05C127.135 21.3022 144.457 38.571 165.825 38.571C187.193 38.571 204.515 21.3022 204.515 4.52016e-05C204.515 -21.3021 187.193 -38.571 165.825 -38.571Z" fill="#C2AC8F"/>
<path d="M165.825 -35.3569C146.238 -35.357 130.359 -19.5271 130.359 4.82037e-05C130.359 19.5272 146.238 35.3571 165.825 35.3571C185.412 35.3571 201.291 19.5272 201.291 5.44048e-05C201.291 -19.5271 185.412 -35.3569 165.825 -35.3569Z" fill="#D2805F"/>
<path d="M165.825 -32.1429C148.018 -32.1429 133.583 -17.752 133.583 6.34172e-05C133.583 17.7522 148.018 32.1431 165.825 32.1431C183.632 32.1431 198.067 17.7522 198.067 6.90545e-05C198.067 -17.752 183.632 -32.1429 165.825 -32.1429Z" fill="#864146"/>
<path d="M165.825 -28.9289C149.799 -28.9289 136.807 -15.977 136.807 7.59963e-05C136.807 15.9771 149.799 28.9291 165.825 28.9291C181.851 28.9291 194.843 15.9771 194.843 8.107e-05C194.843 -15.977 181.851 -28.9289 165.825 -28.9289Z" fill="#B24B27"/>
<path d="M45.4556 28.9291L165.825 28.9291L165.825 19.2861L45.4556 19.2861L45.4556 28.9291Z" fill="#B24B27"/>
<path d="M45.4556 32.1431L165.825 32.1431L165.825 28.9291L45.4556 28.9291L45.4556 32.1431Z" fill="#864146"/>
<path d="M45.4556 35.357L165.825 35.3571L165.825 32.1431L45.4556 32.143L45.4556 35.357Z" fill="#D2805F"/>
<path d="M45.4556 38.571L165.825 38.571L165.825 35.357L45.4556 35.357L45.4556 38.571Z" fill="#C2AC8F"/>
<path d="M45.4556 41.7861L165.825 41.7861L165.825 38.5721L45.4556 38.5721L45.4556 41.7861Z" fill="#929292"/>
<path d="M45.4556 45.0001L165.825 45.0001L165.825 41.7861L45.4556 41.7861L45.4556 45.0001Z" fill="#3D393B"/>
</g>
</g>
<defs>
<clipPath id="clip0_1_1321">
<rect width="210.647" height="45" fill="white" transform="translate(211 45.0001) rotate(-180)"/>
</clipPath>
</defs>
</svg>
