<svg width="24" height="25" viewBox="0 0 24 25" fill="none" xmlns="http://www.w3.org/2000/svg">
<g clip-path="url(#clip0_4_115)">
<path d="M12 14.6001C9.58 14.6001 7.3 14.0001 6 13.0501V10.2401C7.47 11.0701 9.61 11.6001 12 11.6001C14.39 11.6001 16.53 11.0701 18 10.2401V12.6801C18.33 12.6301 18.66 12.6001 19 12.6001C19.34 12.6001 19.67 12.6301 20 12.6801V7.6001C20 5.3901 16.42 3.6001 12 3.6001C7.58 3.6001 4 5.3901 4 7.6001V17.6001C4 19.8101 7.59 21.6001 12 21.6001C12.1 21.6001 12.2 21.6001 12.29 21.6001C12.11 20.9601 12 20.2901 12 19.6001C8.13 19.6001 6 18.1001 6 17.6001V15.3701C7.61 16.1501 9.72 16.6001 12 16.6001C12.24 16.6001 12.47 16.6001 12.7 16.5701C13.1 15.7401 13.65 15.0101 14.32 14.4101C13.58 14.5301 12.8 14.6001 12 14.6001ZM12 5.6001C15.87 5.6001 18 7.1001 18 7.6001C18 8.1001 15.87 9.6001 12 9.6001C8.13 9.6001 6 8.1001 6 7.6001C6 7.1001 8.13 5.6001 12 5.6001ZM22.7 20.2001V19.2001L23.8 18.4001C23.9 18.3001 24 18.2001 23.9 18.1001L22.9 16.4001C22.9 16.3001 22.7 16.3001 22.6 16.3001L21.4 16.8001C21.1 16.6001 20.8 16.4001 20.5 16.3001L20.3 15.0001C20.3 14.9001 20.2 14.8001 20.1 14.8001H18.1C17.9 14.8001 17.8 14.9001 17.8 15.0001L17.6 16.3001C17.3 16.5001 17.1 16.6001 16.8 16.8001L15.6 16.3001C15.5 16.3001 15.4 16.3001 15.3 16.4001L14.3 18.1001C14.3 18.2001 14.3 18.3001 14.4 18.4001L15.5 19.2001V20.2001L14.4 21.0001C14.3 21.1001 14.2 21.2001 14.3 21.3001L15.3 23.0001C15.4 23.1001 15.5 23.1001 15.6 23.1001L16.8 22.6001C17 22.8001 17.3 23.0001 17.6 23.1001L17.8 24.4001C17.9 24.5001 18 24.6001 18.1 24.6001H20.1C20.2 24.6001 20.3 24.5001 20.3 24.4001L20.5 23.1001C20.8 22.9001 21 22.8001 21.3 22.6001L22.5 23.0001C22.6 23.0001 22.7 23.0001 22.8 22.9001L23.8 21.2001C23.9 21.1001 23.9 21.0001 23.8 21.0001L22.7 20.2001ZM19 21.1001C18.2 21.1001 17.5 20.4001 17.5 19.6001C17.5 18.8001 18.2 18.1001 19 18.1001C19.8 18.1001 20.5 18.8001 20.5 19.6001C20.5 20.4001 19.8 21.1001 19 21.1001Z" fill="#81FF1E"/>
</g>
<defs>
<clipPath id="clip0_4_115">
<rect width="24" height="24" fill="white" transform="translate(0 0.600098)"/>
</clipPath>
</defs>
</svg>
