<svg width="24" height="25" viewBox="0 0 24 25" fill="none" xmlns="http://www.w3.org/2000/svg">
<path d="M13.78 15.9001L19.78 21.9001L21.89 19.7401L15.89 13.7401L13.78 15.9001ZM17.5 10.7001C17.11 10.7001 16.69 10.6501 16.36 10.5101L4.97 21.8501L2.86 19.7401L10.27 12.3401L8.5 10.5601L7.78 11.2601L6.33 9.85011V12.7101L5.63 13.4101L2.11 9.85011L2.81 9.15011H5.62L4.22 7.74011L7.78 4.18011C8.95 3.01011 10.83 3.01011 12 4.18011L9.89 6.34011L11.3 7.74011L10.59 8.45011L12.38 10.2301L14.2 8.35011C14.06 8.02011 14 7.60011 14 7.23011C14 5.26011 15.56 3.71011 17.5 3.71011C18.09 3.71011 18.61 3.85011 19.08 4.13011L16.41 6.80011L17.91 8.30011L20.58 5.63011C20.86 6.10011 21 6.60011 21 7.23011C21 9.15011 19.45 10.7001 17.5 10.7001Z" fill="#FAE94A"/>
</svg>
