<svg width="24" height="25" viewBox="0 0 24 25" fill="none" xmlns="http://www.w3.org/2000/svg">
<path d="M3.00001 17.8501V21.6001H6.75001L17.81 10.5301L14.06 6.78011L3.00001 17.8501ZM22.61 18.9601L18.36 23.2101L13.16 18.0101L14.93 16.2401L15.93 17.2401L18.4 14.7601L19.82 16.1801L18.36 17.6001L19.42 18.6001L20.84 17.2001L22.61 18.9601ZM6.61001 11.4301L1.39001 6.24011L5.64001 1.99011L7.40001 3.76011L4.93001 6.24011L6.00001 7.30011L8.46001 4.82011L9.88001 6.24011L8.46001 7.65011L9.46001 8.65011L6.61001 11.4301ZM20.71 7.60011C21.1 7.21011 21.1 6.60011 20.71 6.19011L18.37 3.89011C18 3.50011 17.35 3.50011 16.96 3.89011L15.12 5.72011L18.87 9.47011L20.71 7.60011Z" fill="#2CCCFF"/>
</svg>
