<svg width="45" height="45" viewBox="0 0 45 45" fill="none" xmlns="http://www.w3.org/2000/svg">
<g clip-path="url(#clip0_1_1299)">
<path d="M22.5 45C34.9264 45 45 34.9264 45 22.5C45 10.0736 34.9264 0 22.5 0C10.0736 0 0 10.0736 0 22.5C0 34.9264 10.0736 45 22.5 45Z" fill="#B24B27"/>
<path d="M22.5 37.5C30.7843 37.5 37.5 30.7843 37.5 22.5C37.5 14.2157 30.7843 7.5 22.5 7.5C14.2158 7.5 7.50003 14.2157 7.50003 22.5C7.50003 30.7843 14.2158 37.5 22.5 37.5Z" fill="#864146"/>
<path d="M22.5 35C29.4036 35 35 29.4036 35 22.5C35 15.5964 29.4036 10 22.5 10C15.5964 10 10 15.5964 10 22.5C10 29.4036 15.5964 35 22.5 35Z" fill="#D2805F"/>
<path d="M22.5 32.5C28.0229 32.5 32.5 28.0228 32.5 22.5C32.5 16.9772 28.0229 12.5 22.5 12.5C16.9772 12.5 12.5 16.9772 12.5 22.5C12.5 28.0228 16.9772 32.5 22.5 32.5Z" fill="#C2AC8F"/>
<path d="M22.5 30C26.6421 30 30 26.6421 30 22.5C30 18.3579 26.6421 15 22.5 15C18.3578 15 15 18.3579 15 22.5C15 26.6421 18.3578 30 22.5 30Z" fill="#929292"/>
<path d="M22.5 27.5C25.2614 27.5 27.5 25.2614 27.5 22.5C27.5 19.7386 25.2614 17.5 22.5 17.5C19.7386 17.5 17.5 19.7386 17.5 22.5C17.5 25.2614 19.7386 27.5 22.5 27.5Z" fill="#3D393B"/>
<path d="M37.5 22.5V0L35 0V22.5H37.5Z" fill="#864146"/>
<path d="M35 22.5V0L32.5 0V22.5H35Z" fill="#D2805F"/>
<path d="M32.5 22.5V0L30 0V22.5H32.5Z" fill="#C2AC8F"/>
<path d="M30 22.5V0L27.5 0V22.5H30Z" fill="#929292"/>
<path d="M27.5 22.5V0L25 0V22.5H27.5Z" fill="#3D393B"/>
<path d="M45 22.5001V6.10352e-05L37.5 6.10352e-05V22.5001H45Z" fill="#B24B27"/>
<path d="M22.5 35H0V37.5H22.5V35Z" fill="#864146"/>
<path d="M22.5 32.5H0V35H22.5V32.5Z" fill="#D2805F"/>
<path d="M22.5 30H0V32.5H22.5V30Z" fill="#C2AC8F"/>
<path d="M22.5 27.5H0V30H22.5V27.5Z" fill="#929292"/>
<path d="M22.5 25H0V27.5H22.5V25Z" fill="#3D393B"/>
<path d="M22.5 37.5H0V45H22.5V37.5Z" fill="#B24B27"/>
</g>
<defs>
<clipPath id="clip0_1_1299">
<rect width="45" height="45" fill="white"/>
</clipPath>
</defs>
</svg>
