<svg width="220" height="168" viewBox="0 0 220 168" fill="none" xmlns="http://www.w3.org/2000/svg">
<g clip-path="url(#clip0_1_2456)">
<path d="M220 42.2857C220 19.1423 201.239 0.380948 178.095 0.380949C154.952 0.38095 136.19 19.1423 136.19 42.2857C136.19 65.4291 154.952 84.1905 178.095 84.1905C201.239 84.1905 220 65.4291 220 42.2857Z" fill="#B24B27"/>
<path d="M206.032 42.2857C206.032 26.8568 193.524 14.3492 178.095 14.3492C162.666 14.3492 150.159 26.8568 150.159 42.2857C150.159 57.7146 162.666 70.2222 178.095 70.2222C193.524 70.2222 206.032 57.7146 206.032 42.2857Z" fill="#864146"/>
<path d="M201.376 42.2857C201.376 29.4283 190.953 19.0053 178.095 19.0053C165.238 19.0053 154.815 29.4283 154.815 42.2857C154.815 55.1432 165.238 65.5662 178.095 65.5662C190.953 65.5662 201.376 55.1432 201.376 42.2857Z" fill="#D2805F"/>
<path d="M196.72 42.2857C196.72 31.9998 188.381 23.6614 178.095 23.6614C167.809 23.6614 159.471 31.9998 159.471 42.2857C159.471 52.5717 167.809 60.9101 178.095 60.9101C188.381 60.9101 196.72 52.5717 196.72 42.2857Z" fill="#C2AC8F"/>
<path d="M192.063 42.2857C192.063 34.5713 185.81 28.3175 178.095 28.3175C170.381 28.3175 164.127 34.5713 164.127 42.2857C164.127 50.0002 170.381 56.254 178.095 56.254C185.81 56.254 192.063 50.0002 192.063 42.2857Z" fill="#929292"/>
<path d="M187.407 42.2857C187.407 37.1428 183.238 32.9736 178.095 32.9736C172.952 32.9736 168.783 37.1428 168.783 42.2857C168.783 47.4287 172.952 51.5979 178.095 51.5979C183.238 51.5979 187.407 47.4287 187.407 42.2857Z" fill="#3D393B"/>
<path d="M1.52588e-05 0.381039L178.095 0.381031L178.095 14.3493L1.58694e-05 14.3493L1.52588e-05 0.381039Z" fill="#B24B27"/>
<path d="M0.000106812 14.3493L178.095 14.3493L178.095 19.0054L0.000107015 19.0054L0.000106812 14.3493Z" fill="#864146"/>
<path d="M0.000106812 19.0054L178.095 19.0054L178.095 23.6615L0.000107015 23.6615L0.000106812 19.0054Z" fill="#D2805F"/>
<path d="M0.000106812 23.6615L178.095 23.6615L178.095 28.3175L0.000107015 28.3176L0.000106812 23.6615Z" fill="#C2AC8F"/>
<path d="M0.000106812 28.3175L178.095 28.3175L178.095 32.9736L0.000107015 32.9736L0.000106812 28.3175Z" fill="#929292"/>
<path d="M0.000106812 32.9736L178.095 32.9736L178.095 37.6297L0.000107015 37.6297L0.000106812 32.9736Z" fill="#3D393B"/>
<path d="M206.032 42.2857L206.032 168L220 168L220 42.2857L206.032 42.2857Z" fill="#B24B27"/>
<path d="M201.376 42.2857L201.376 168L206.032 168L206.032 42.2857L201.376 42.2857Z" fill="#864146"/>
<path d="M196.72 42.2857L196.72 168L201.376 168L201.376 42.2857L196.72 42.2857Z" fill="#D2805F"/>
<path d="M192.063 42.2857L192.063 168L196.72 168L196.72 42.2857L192.063 42.2857Z" fill="#C2AC8F"/>
<path d="M187.407 42.2857L187.407 168L192.063 168L192.063 42.2857L187.407 42.2857Z" fill="#929292"/>
<path d="M182.751 42.2857L182.751 168L187.407 168L187.407 42.2857L182.751 42.2857Z" fill="#3D393B"/>
</g>
<defs>
<clipPath id="clip0_1_2456">
<rect width="167.619" height="220" fill="white" transform="translate(0 168) rotate(-90)"/>
</clipPath>
</defs>
</svg>
